<svg version="1" xmlns="http://www.w3.org/2000/svg" width="764" height="764" viewBox="0 0 573.000000 573.000000"><path d="M272.8 60.5c-.1.1-3 .6-6.3.9-3.3.4-8.7 1.4-12 2.2-35.4 8.8-62.8 26.6-82.9 53.7-10 13.6-19.3 36.3-21.1 51.7-.4 3-.9 5.8-1.1 6.2-1 1.5-.5 22.6.6 29.3 2.9 17.5 11.9 36.7 23.7 50.7 5.4 6.4 16.9 17.5 22.8 21.8 3.3 2.5 6.2 4.7 6.5 5 .5.6 9.4 6.3 13.5 8.7 2.3 1.4 27.6 14 57 28.3 29.2 14.2 40.6 22.5 47.2 34.4 2.6 4.6 2.8 6 2.8 15.1 0 9.3-.2 10.5-3.3 16.7-3.4 6.9-8.7 12.4-15.2 15.8-4.4 2.2-12.2 4.9-16.3 5.5-18.4 2.8-33.8 2.6-46.2-.6-22.8-5.9-48.9-19.5-73.7-38.2-6.2-4.6-9-6.2-9.6-5.4-.5.7-8.9 14.7-18.7 31.2-9.8 16.5-20.2 34-23.1 38.9-3 4.9-5.4 9.2-5.4 9.5.1 1.3 17.3 13.5 28.1 19.9 39.3 23.4 82.3 35.2 128.9 35.5 16.1.1 30.9-.7 34.2-1.7.7-.3 3.6-.7 6.5-1 9.8-1.1 23.7-4.7 36.8-9.5 3.9-1.4 7.2-2.6 7.5-2.6 1.2-.3 12.9-6.3 17.5-8.9 6.5-3.9 21.1-15.4 25.6-20.3 20.3-22.4 31.4-51.1 32.3-84.3.7-22.9-3.8-39.9-15.1-57.7-14-22.1-39.7-43.7-69.3-58.3-10.7-5.3-10.9-5.4-31-14-43-18.5-62.5-31.1-68.7-44.6-2.3-5-2.5-6.5-2-12.7 1.4-16.7 14.1-29.2 33.5-32.7 11.1-2 28.7-1.5 39.2 1 1.9.5 4.6 1.1 6 1.4 9.9 1.8 37.4 13.4 50.1 21.2 3.3 2 6.4 3.2 6.9 2.8 1-1.2 38-74.5 38-75.4 0-2-24.7-15.3-39.6-21.3-10.1-4.1-24.4-9.1-29-10.2-1-.2-6.6-1.5-12.4-2.9-5.8-1.3-13.2-2.7-16.5-3.1-3.3-.5-6.9-1-8-1.2-2.6-.5-38.2-1.3-38.7-.8z"/></svg>